<svg xmlns="http://www.w3.org/2000/svg" xmlns:xlink="http://www.w3.org/1999/xlink" width="500" zoomAndPan="magnify" viewBox="0 0 375 374.999991" height="500" preserveAspectRatio="xMidYMid meet" version="1.0"><defs><g/><clipPath id="9e77c58f82"><path d="M 145 56 L 205 56 L 205 125 L 145 125 Z M 145 56 " clip-rule="nonzero"/></clipPath><clipPath id="d17ea5f19a"><path d="M 145.175781 124.125 L 129.492188 95.027344 L 201.171875 56.386719 L 216.859375 85.484375 Z M 145.175781 124.125 " clip-rule="nonzero"/></clipPath><clipPath id="c817ad22e9"><path d="M 145.175781 124.125 L 129.492188 95.027344 L 201.171875 56.386719 L 216.859375 85.484375 Z M 145.175781 124.125 " clip-rule="nonzero"/></clipPath><clipPath id="ed7ede37d7"><path d="M 170 69 L 231 69 L 231 137 L 170 137 Z M 170 69 " clip-rule="nonzero"/></clipPath><clipPath id="7c079fd4c0"><path d="M 170.671875 136.59375 L 155.164062 107.398438 L 227.078125 69.195312 L 242.585938 98.390625 Z M 170.671875 136.59375 " clip-rule="nonzero"/></clipPath><clipPath id="898c70b4d0"><path d="M 170.671875 136.59375 L 155.164062 107.398438 L 227.078125 69.195312 L 242.585938 98.390625 Z M 170.671875 136.59375 " clip-rule="nonzero"/></clipPath><clipPath id="ff6146ba6f"><path d="M 236 139 L 300 139 L 300 204 L 236 204 Z M 236 139 " clip-rule="nonzero"/></clipPath><clipPath id="202a812bf8"><path d="M 236.132812 203.285156 L 222.308594 173.261719 L 296.273438 139.199219 L 310.101562 169.226562 Z M 236.132812 203.285156 " clip-rule="nonzero"/></clipPath><clipPath id="e59f1f06d5"><path d="M 236.132812 203.285156 L 222.308594 173.261719 L 296.273438 139.199219 L 310.101562 169.226562 Z M 236.132812 203.285156 " clip-rule="nonzero"/></clipPath><clipPath id="8609492f20"><path d="M 159.898438 3 L 364 3 L 364 206.816406 L 159.898438 206.816406 Z M 159.898438 3 " clip-rule="nonzero"/></clipPath><clipPath id="25d3b37753"><path d="M 0.320312 96 L 281 96 L 281 358.078125 L 0.320312 358.078125 Z M 0.320312 96 " clip-rule="nonzero"/></clipPath><clipPath id="28d967ea0d"><rect x="0" width="281" y="0" height="263"/></clipPath><clipPath id="40ff9e606d"><path d="M 246 162 L 310 162 L 310 227 L 246 227 Z M 246 162 " clip-rule="nonzero"/></clipPath><clipPath id="b7c610f40d"><path d="M 246.097656 226.761719 L 232.269531 196.734375 L 306.238281 162.671875 L 320.066406 192.699219 Z M 246.097656 226.761719 " clip-rule="nonzero"/></clipPath><clipPath id="0e2f478da0"><path d="M 246.097656 226.761719 L 232.269531 196.734375 L 306.238281 162.671875 L 320.066406 192.699219 Z M 246.097656 226.761719 " clip-rule="nonzero"/></clipPath><clipPath id="b960a2648f"><rect x="0" width="367" y="0" height="359"/></clipPath></defs><rect x="-37.5" width="450" fill="#ffffff" y="-37.499999" height="449.999989" fill-opacity="1"/><rect x="-37.5" width="450" fill="#ffffff" y="-37.499999" height="449.999989" fill-opacity="1"/><g transform="matrix(1, 0, 0, 1, 4, 12)"><g clip-path="url(#b960a2648f)"><g clip-path="url(#9e77c58f82)"><g clip-path="url(#d17ea5f19a)"><g clip-path="url(#c817ad22e9)"><path fill="#ffffff" d="M 201.027344 56.214844 L 204.75 63.117188 L 145.1875 124.117188 Z M 201.027344 56.214844 " fill-opacity="1" fill-rule="nonzero"/></g></g></g><g clip-path="url(#ed7ede37d7)"><g clip-path="url(#7c079fd4c0)"><g clip-path="url(#898c70b4d0)"><path fill="#ffffff" d="M 226.9375 69.023438 L 230.613281 75.949219 L 170.683594 136.585938 Z M 226.9375 69.023438 " fill-opacity="1" fill-rule="nonzero"/></g></g></g><g clip-path="url(#ff6146ba6f)"><g clip-path="url(#202a812bf8)"><g clip-path="url(#e59f1f06d5)"><path fill="#ffffff" d="M 296.140625 139.019531 L 299.421875 146.140625 L 236.148438 203.28125 Z M 296.140625 139.019531 " fill-opacity="1" fill-rule="nonzero"/></g></g></g><g clip-path="url(#8609492f20)"><path fill="#ffffff" d="M 330.304688 153.691406 L 334.367188 149.628906 C 335.238281 148.757812 335.238281 147.304688 334.367188 146.433594 C 333.496094 145.566406 332.042969 145.566406 331.175781 146.433594 L 328.5625 148.757812 L 320.433594 124.664062 L 325.949219 119.148438 C 326.820312 118.277344 326.820312 116.824219 325.949219 115.953125 C 325.078125 115.082031 323.625 115.082031 322.753906 115.953125 L 318.691406 120.019531 L 311.433594 98.535156 C 309.402344 91.277344 309.980469 84.601562 310.5625 80.539062 L 332.042969 59.925781 C 366.300781 23.058594 363.105469 3.609375 363.105469 3.609375 C 363.105469 3.609375 343.65625 0.414062 306.789062 34.671875 L 286.175781 56.152344 C 282.113281 56.734375 275.4375 57.3125 268.179688 55.28125 L 246.695312 48.023438 L 250.761719 43.960938 C 251.632812 43.089844 251.632812 41.636719 250.761719 40.765625 C 249.890625 39.894531 248.4375 39.894531 247.566406 40.765625 L 242.050781 46.28125 L 217.957031 38.152344 L 220.277344 35.832031 C 221.148438 34.960938 221.148438 33.507812 220.277344 32.636719 C 219.410156 31.765625 217.957031 31.765625 217.085938 32.636719 L 213.023438 36.703125 L 193.28125 29.734375 C 193.28125 29.734375 183.703125 26.542969 161.347656 30.894531 L 259.179688 84.890625 L 206.925781 140.339844 L 184.574219 135.113281 L 159.898438 136.566406 L 190.957031 156.304688 L 198.796875 164.144531 L 193.28125 173.722656 L 202.859375 168.207031 L 210.699219 176.046875 L 230.148438 206.816406 L 231.601562 182.140625 L 226.375 159.789062 L 281.53125 107.535156 L 335.820312 205.367188 C 340.171875 183.011719 336.980469 173.433594 336.980469 173.433594 Z M 330.304688 153.691406 " fill-opacity="1" fill-rule="nonzero"/></g><g clip-path="url(#25d3b37753)"><g transform="matrix(1, 0, 0, 1, 0.000000000000000888, 96)"><g clip-path="url(#28d967ea0d)"><g fill="#ffffff" fill-opacity="1"><g transform="translate(1.363813, 176.689693)"><g><path d="M 104.828125 -128.9375 C 106.335938 -127.769531 107.410156 -126.398438 108.046875 -124.828125 C 108.691406 -123.253906 109.363281 -121.648438 110.0625 -120.015625 C 111.113281 -118.148438 111 -116.082031 109.71875 -113.8125 C 108.4375 -111.539062 107.269531 -109.59375 106.21875 -107.96875 C 104.707031 -105.632812 103.019531 -103.359375 101.15625 -101.140625 C 99.289062 -98.929688 97.367188 -96.78125 95.390625 -94.6875 C 93.867188 -93.175781 92.320312 -91.601562 90.75 -89.96875 C 89.1875 -88.34375 87.414062 -86.945312 85.4375 -85.78125 C 84.269531 -85.082031 83.070312 -84.703125 81.84375 -84.640625 C 80.625 -84.585938 79.835938 -84.878906 79.484375 -85.515625 C 79.140625 -86.160156 79.664062 -87.179688 81.0625 -88.578125 C 81.414062 -88.804688 81.910156 -89.5625 82.546875 -90.84375 C 83.191406 -92.125 83.945312 -93.578125 84.8125 -95.203125 C 85.6875 -96.835938 86.5625 -98.265625 87.4375 -99.484375 C 88.3125 -100.710938 89.039062 -101.328125 89.625 -101.328125 C 89.507812 -101.210938 89.160156 -100.570312 88.578125 -99.40625 C 87.992188 -98.238281 87.46875 -97.25 87 -96.4375 C 88.164062 -98.0625 89.648438 -100.300781 91.453125 -103.15625 C 93.265625 -106.007812 94.867188 -109.007812 96.265625 -112.15625 C 97.660156 -115.300781 98.328125 -118.179688 98.265625 -120.796875 C 98.210938 -123.421875 96.960938 -125.316406 94.515625 -126.484375 C 92.535156 -127.410156 90.207031 -127.582031 87.53125 -127 C 84.851562 -126.425781 82.519531 -125.789062 80.53125 -125.09375 C 76.113281 -123.570312 71.863281 -121.238281 67.78125 -118.09375 C 73.375 -122.289062 79.546875 -124.972656 86.296875 -126.140625 C 87.816406 -126.367188 89.476562 -126.539062 91.28125 -126.65625 C 93.082031 -126.769531 94.566406 -126.304688 95.734375 -125.265625 C 97.015625 -123.984375 97.507812 -122.640625 97.21875 -121.234375 C 96.925781 -119.835938 96.664062 -118.5 96.4375 -117.21875 C 96.4375 -118.738281 96.460938 -120.140625 96.515625 -121.421875 C 96.578125 -122.703125 96.285156 -123.804688 95.640625 -124.734375 C 95.003906 -125.671875 93.582031 -126.195312 91.375 -126.3125 C 88.6875 -126.425781 85.972656 -126.078125 83.234375 -125.265625 C 80.503906 -124.453125 77.972656 -123.460938 75.640625 -122.296875 C 71.566406 -120.316406 67.753906 -117.664062 64.203125 -114.34375 C 60.648438 -111.019531 57.828125 -107.320312 55.734375 -103.25 C 53.398438 -98.707031 52.347656 -94.078125 52.578125 -89.359375 C 52.816406 -84.640625 53.78125 -79.976562 55.46875 -75.375 C 57.15625 -70.78125 59.132812 -66.238281 61.40625 -61.75 C 63.675781 -57.269531 65.6875 -52.992188 67.4375 -48.921875 C 65.6875 -52.296875 63.847656 -55.613281 61.921875 -58.875 C 60.003906 -62.132812 58.234375 -65.394531 56.609375 -68.65625 C 57.890625 -65.976562 58.878906 -63.359375 59.578125 -60.796875 C 60.273438 -58.234375 61.378906 -55.613281 62.890625 -52.9375 C 64.867188 -49.675781 66.816406 -46.5 68.734375 -43.40625 C 70.660156 -40.320312 72.207031 -36.914062 73.375 -33.1875 C 75.707031 -25.382812 75.765625 -18.25 73.546875 -11.78125 C 71.335938 -5.320312 67.203125 0.523438 61.140625 5.765625 L 64.640625 3.3125 C 64.640625 4.59375 63.851562 5.929688 62.28125 7.328125 C 60.707031 8.734375 58.753906 10.078125 56.421875 11.359375 C 54.097656 12.640625 51.882812 13.742188 49.78125 14.671875 C 47.6875 15.609375 46.175781 16.25 45.25 16.59375 C 40.007812 18.6875 34.210938 19.820312 27.859375 20 C 21.515625 20.175781 15.722656 18.984375 10.484375 16.421875 C 6.753906 14.441406 4.070312 11.878906 2.4375 8.734375 C 0.8125 5.585938 0 2.179688 0 -1.484375 C 0 -5.148438 0.582031 -8.847656 1.75 -12.578125 C 2.914062 -16.304688 4.429688 -19.625 6.296875 -22.53125 C 6.753906 -23.226562 7.769531 -24.597656 9.34375 -26.640625 C 10.914062 -28.679688 12.71875 -30.691406 14.75 -32.671875 C 16.789062 -34.648438 18.742188 -36.078125 20.609375 -36.953125 C 22.472656 -37.828125 23.875 -37.390625 24.8125 -35.640625 C 25.394531 -34.703125 25.304688 -33.390625 24.546875 -31.703125 C 23.785156 -30.015625 22.878906 -28.296875 21.828125 -26.546875 C 20.785156 -24.804688 20.085938 -23.46875 19.734375 -22.53125 C 19.035156 -21.019531 18.453125 -19.503906 17.984375 -17.984375 C 17.523438 -16.472656 17.117188 -14.90625 16.765625 -13.28125 C 16.179688 -10.476562 15.773438 -7.503906 15.546875 -4.359375 C 15.316406 -1.222656 15.785156 1.6875 16.953125 4.375 C 18.347656 7.632812 20.675781 9.46875 23.9375 9.875 C 27.195312 10.28125 30.34375 10.078125 33.375 9.265625 C 37.5625 7.984375 41.457031 5.882812 45.0625 2.96875 C 48.675781 0.0625 51.59375 -3.253906 53.8125 -6.984375 C 54.976562 -8.960938 55.9375 -11.03125 56.6875 -13.1875 C 57.445312 -15.34375 57.882812 -17.523438 58 -19.734375 C 58 -21.367188 57.828125 -23.0625 57.484375 -24.8125 C 57.359375 -25.269531 57.117188 -25.847656 56.765625 -26.546875 C 56.421875 -27.253906 56.304688 -27.898438 56.421875 -28.484375 C 56.421875 -28.128906 56.566406 -27.6875 56.859375 -27.15625 C 57.148438 -26.632812 57.359375 -26.144531 57.484375 -25.6875 C 57.359375 -26.269531 57.207031 -26.847656 57.03125 -27.421875 C 56.863281 -28.003906 56.722656 -28.644531 56.609375 -29.34375 C 56.609375 -29.226562 56.488281 -29.40625 56.25 -29.875 C 56.019531 -30.34375 55.847656 -30.578125 55.734375 -30.578125 C 55.148438 -31.972656 54.679688 -33.253906 54.328125 -34.421875 L 51.1875 -42.28125 C 49.4375 -46.820312 47.570312 -51.332031 45.59375 -55.8125 C 43.613281 -60.300781 41.632812 -64.816406 39.65625 -69.359375 C 38.257812 -72.734375 37.125 -76.195312 36.25 -79.75 C 35.375 -83.300781 34.820312 -86.882812 34.59375 -90.5 C 34.59375 -91.082031 34.53125 -92.363281 34.40625 -94.34375 C 34.289062 -96.320312 34.347656 -98.210938 34.578125 -100.015625 C 34.816406 -101.816406 35.40625 -102.71875 36.34375 -102.71875 C 36.21875 -102.71875 36.066406 -102.253906 35.890625 -101.328125 C 35.722656 -100.398438 35.695312 -99.9375 35.8125 -99.9375 C 36.507812 -103.195312 37.734375 -106.457031 39.484375 -109.71875 L 38.265625 -107.96875 C 38.609375 -110.0625 39.507812 -112.097656 40.96875 -114.078125 C 42.425781 -116.054688 44.054688 -117.945312 45.859375 -119.75 C 47.660156 -121.5625 49.257812 -123.109375 50.65625 -124.390625 C 56.945312 -130.210938 64.226562 -134.171875 72.5 -136.265625 C 76.695312 -137.316406 80.71875 -137.550781 84.5625 -136.96875 C 88.40625 -136.382812 92.304688 -135.273438 96.265625 -133.640625 C 97.890625 -133.066406 99.429688 -132.398438 100.890625 -131.640625 C 102.347656 -130.878906 103.660156 -129.976562 104.828125 -128.9375 Z M 7.15625 12.578125 C 4.945312 9.671875 3.695312 5.941406 3.40625 1.390625 C 3.113281 -3.148438 3.632812 -7.835938 4.96875 -12.671875 C 6.3125 -17.503906 8.148438 -21.609375 10.484375 -24.984375 C 7.804688 -21.253906 5.648438 -17.207031 4.015625 -12.84375 C 2.390625 -8.476562 1.75 -4.113281 2.09375 0.25 C 2.445312 4.625 4.132812 8.734375 7.15625 12.578125 Z M 52.234375 -89.09375 L 52.234375 -86.65625 C 52.234375 -87 52.257812 -87.375 52.3125 -87.78125 C 52.375 -88.195312 52.347656 -88.632812 52.234375 -89.09375 Z M 52.234375 -89.09375 "/></g></g></g><g fill="#ffffff" fill-opacity="1"><g transform="translate(88.538752, 176.689693)"><g><path d="M 92.421875 -42.28125 L 92.421875 -42.109375 C 92.648438 -39.890625 92.066406 -38.050781 90.671875 -36.59375 C 89.273438 -35.144531 87.9375 -33.660156 86.65625 -32.140625 C 85.488281 -30.628906 84.265625 -29.054688 82.984375 -27.421875 C 81.703125 -25.796875 80.304688 -24.226562 78.796875 -22.71875 C 77.046875 -20.851562 75.328125 -18.988281 73.640625 -17.125 C 71.953125 -15.257812 70.117188 -13.566406 68.140625 -12.046875 C 68.015625 -11.929688 67.253906 -11.46875 65.859375 -10.65625 C 64.460938 -9.84375 63.09375 -9.023438 61.75 -8.203125 C 60.414062 -7.390625 59.632812 -6.867188 59.40625 -6.640625 L 59.40625 -6.984375 C 58.695312 -6.523438 58.578125 -6.351562 59.046875 -6.46875 C 59.515625 -6.582031 59.222656 -6.171875 58.171875 -5.234375 C 57.359375 -4.535156 56.457031 -3.984375 55.46875 -3.578125 C 54.476562 -3.171875 53.515625 -2.734375 52.578125 -2.265625 C 51.421875 -1.804688 50.316406 -1.253906 49.265625 -0.609375 C 48.210938 0.0234375 47.046875 0.40625 45.765625 0.53125 C 45.421875 0.53125 44.550781 0.296875 43.15625 -0.171875 C 41.757812 -0.640625 40.476562 -1.222656 39.3125 -1.921875 C 38.144531 -2.617188 37.734375 -3.203125 38.078125 -3.671875 C 38.203125 -3.898438 38.347656 -3.894531 38.515625 -3.65625 C 38.691406 -3.425781 38.835938 -3.375 38.953125 -3.5 C 38.140625 -3.957031 37.382812 -4.65625 36.6875 -5.59375 C 36.6875 -5.476562 36.710938 -5.359375 36.765625 -5.234375 C 36.828125 -5.117188 36.859375 -5.003906 36.859375 -4.890625 C 36.742188 -4.773438 36.25 -5.300781 35.375 -6.46875 C 34.5 -7.632812 33.59375 -8.851562 32.65625 -10.125 C 31.726562 -11.40625 31.207031 -12.164062 31.09375 -12.40625 C 30.28125 -14.03125 29.523438 -15.800781 28.828125 -17.71875 C 28.128906 -19.644531 27.601562 -21.539062 27.25 -23.40625 L 18.875 -9.4375 C 17.820312 -7.914062 16.882812 -6.050781 16.0625 -3.84375 C 15.25 -1.632812 13.851562 -0.296875 11.875 0.171875 C 11.757812 0.171875 10.828125 0.285156 9.078125 0.515625 C 7.335938 0.753906 6.175781 0.46875 5.59375 -0.34375 C 5.820312 -0.113281 6.253906 0.0546875 6.890625 0.171875 C 7.535156 0.285156 8.148438 0.34375 8.734375 0.34375 C 8.035156 0.226562 7.304688 0.0546875 6.546875 -0.171875 C 5.796875 -0.410156 5.1875 -0.703125 4.71875 -1.046875 C 4.71875 -0.929688 4.742188 -0.84375 4.796875 -0.78125 C 4.859375 -0.726562 4.890625 -0.703125 4.890625 -0.703125 C 4.890625 -0.585938 4.394531 -0.960938 3.40625 -1.828125 C 2.414062 -2.703125 1.804688 -3.195312 1.578125 -3.3125 C 0.992188 -4.25 0.582031 -5.238281 0.34375 -6.28125 C 0.113281 -7.332031 0 -8.382812 0 -9.4375 C 0 -11.414062 0.226562 -13.363281 0.6875 -15.28125 C 1.15625 -17.207031 1.566406 -19.101562 1.921875 -20.96875 C 2.847656 -25.394531 3.894531 -29.789062 5.0625 -34.15625 C 6.226562 -38.519531 7.160156 -42.914062 7.859375 -47.34375 C 9.492188 -55.613281 11.59375 -63.648438 14.15625 -71.453125 C 14.851562 -73.660156 15.550781 -75.8125 16.25 -77.90625 C 16.945312 -80.007812 17.703125 -82.109375 18.515625 -84.203125 C 18.628906 -84.554688 18.945312 -85.488281 19.46875 -87 C 20 -88.507812 20.582031 -89.992188 21.21875 -91.453125 C 21.863281 -92.910156 22.300781 -93.640625 22.53125 -93.640625 C 22.53125 -93.640625 22.351562 -93.085938 22 -91.984375 C 21.65625 -90.878906 21.539062 -90.265625 21.65625 -90.140625 C 22.238281 -91.890625 22.820312 -93.609375 23.40625 -95.296875 C 23.988281 -96.984375 24.628906 -98.703125 25.328125 -100.453125 C 25.328125 -100.453125 25.351562 -100.476562 25.40625 -100.53125 C 25.46875 -100.59375 25.5 -100.679688 25.5 -100.796875 C 25.738281 -101.378906 26.003906 -102.164062 26.296875 -103.15625 C 26.585938 -104.144531 26.847656 -104.992188 27.078125 -105.703125 L 30.578125 -113.03125 C 31.503906 -115.125 32.460938 -117.191406 33.453125 -119.234375 C 34.441406 -121.273438 35.519531 -123.226562 36.6875 -125.09375 C 38.4375 -128.113281 40.53125 -131.140625 42.96875 -134.171875 C 45.414062 -137.203125 48.269531 -139.472656 51.53125 -140.984375 C 54.21875 -142.265625 56.78125 -142.5 59.21875 -141.6875 C 61.664062 -140.875 63.878906 -139.503906 65.859375 -137.578125 C 67.835938 -135.660156 69.410156 -133.476562 70.578125 -131.03125 C 71.515625 -129.050781 72.097656 -127.15625 72.328125 -125.34375 C 72.554688 -123.539062 72.320312 -121.648438 71.625 -119.671875 C 70.457031 -116.054688 68.851562 -112.414062 66.8125 -108.75 C 64.78125 -105.082031 62.539062 -101.789062 60.09375 -98.875 C 58.113281 -96.664062 56.363281 -94.046875 54.84375 -91.015625 C 53.332031 -87.992188 51.707031 -85.140625 49.96875 -82.453125 C 47.632812 -78.847656 45.273438 -75.296875 42.890625 -71.796875 C 40.503906 -68.304688 37.972656 -64.875 35.296875 -61.5 C 34.128906 -59.976562 32.960938 -58.488281 31.796875 -57.03125 C 30.628906 -55.582031 29.40625 -54.097656 28.125 -52.578125 C 26.726562 -50.953125 25.679688 -49.410156 24.984375 -47.953125 C 24.285156 -46.492188 23.644531 -44.71875 23.0625 -42.625 C 21.894531 -38.550781 20.726562 -34.445312 19.5625 -30.3125 C 18.394531 -26.175781 17.347656 -22.070312 16.421875 -18 L 21.140625 -26.203125 C 21.367188 -26.554688 21.945312 -27.398438 22.875 -28.734375 C 23.8125 -30.078125 24.28125 -30.691406 24.28125 -30.578125 C 25.21875 -32.441406 26.382812 -34.300781 27.78125 -36.15625 C 27.78125 -36.15625 27.488281 -35.804688 26.90625 -35.109375 C 26.320312 -34.410156 25.738281 -33.710938 25.15625 -33.015625 C 24.570312 -32.316406 24.28125 -31.96875 24.28125 -31.96875 C 24.164062 -33.019531 24.773438 -34.445312 26.109375 -36.25 C 27.453125 -38.050781 28.414062 -39.363281 29 -40.1875 C 29.925781 -41.8125 30.941406 -43.378906 32.046875 -44.890625 C 33.160156 -46.410156 34.242188 -47.925781 35.296875 -49.4375 C 37.617188 -52.582031 40.085938 -55.671875 42.703125 -58.703125 C 45.328125 -61.734375 48.097656 -64.53125 51.015625 -67.09375 C 53.109375 -68.945312 55.609375 -70.894531 58.515625 -72.9375 C 61.429688 -74.976562 64.488281 -76.375 67.6875 -77.125 C 70.894531 -77.882812 73.835938 -77.097656 76.515625 -74.765625 C 79.191406 -72.441406 80.5625 -70 80.625 -67.4375 C 80.6875 -64.875 79.988281 -62.367188 78.53125 -59.921875 C 77.070312 -57.472656 75.296875 -55.203125 73.203125 -53.109375 C 70.398438 -50.429688 67.335938 -47.984375 64.015625 -45.765625 C 60.703125 -43.554688 57.359375 -41.519531 53.984375 -39.65625 C 52.117188 -38.601562 50.28125 -37.613281 48.46875 -36.6875 C 46.664062 -35.757812 44.773438 -34.882812 42.796875 -34.0625 C 42.453125 -33.945312 41.8125 -33.742188 40.875 -33.453125 C 39.945312 -33.160156 39.367188 -32.898438 39.140625 -32.671875 C 39.140625 -32.554688 39.222656 -31.914062 39.390625 -30.75 C 39.566406 -29.582031 39.539062 -28.941406 39.3125 -28.828125 C 39.070312 -28.828125 38.835938 -29.175781 38.609375 -29.875 C 39.191406 -26.84375 40.035156 -23.753906 41.140625 -20.609375 C 42.242188 -17.460938 43.785156 -14.726562 45.765625 -12.40625 C 45.421875 -12.988281 44.835938 -14.09375 44.015625 -15.71875 C 43.203125 -17.351562 42.445312 -18.957031 41.75 -20.53125 C 41.050781 -22.101562 40.644531 -23.179688 40.53125 -23.765625 C 40.757812 -23.066406 41.425781 -21.640625 42.53125 -19.484375 C 43.644531 -17.328125 44.867188 -15.316406 46.203125 -13.453125 C 47.546875 -11.585938 48.625 -10.597656 49.4375 -10.484375 C 49.789062 -10.367188 50.113281 -10.335938 50.40625 -10.390625 C 50.695312 -10.453125 50.957031 -10.484375 51.1875 -10.484375 C 53.976562 -10.710938 56.539062 -11.929688 58.875 -14.140625 C 61.207031 -16.359375 63.363281 -18.222656 65.34375 -19.734375 C 67.320312 -21.253906 69.503906 -22.800781 71.890625 -24.375 C 74.273438 -25.945312 76.285156 -27.546875 77.921875 -29.171875 C 77.679688 -28.941406 77.269531 -28.828125 76.6875 -28.828125 C 76.570312 -29.054688 77.039062 -29.867188 78.09375 -31.265625 C 79.144531 -32.671875 80.453125 -34.242188 82.015625 -35.984375 C 83.585938 -37.734375 84.984375 -39.304688 86.203125 -40.703125 C 87.429688 -42.097656 88.164062 -42.914062 88.40625 -43.15625 C 89.21875 -43.851562 90.0625 -44.285156 90.9375 -44.453125 C 91.8125 -44.628906 92.304688 -43.90625 92.421875 -42.28125 Z M 54.5 -127.53125 C 51.125 -122.988281 48.300781 -118.007812 46.03125 -112.59375 C 43.757812 -107.175781 41.632812 -101.847656 39.65625 -96.609375 C 37.5625 -91.015625 35.671875 -85.394531 33.984375 -79.75 C 32.296875 -74.101562 30.632812 -68.425781 29 -62.71875 C 33.769531 -69.007812 38.367188 -75.441406 42.796875 -82.015625 C 47.222656 -88.597656 51.359375 -95.382812 55.203125 -102.375 C 56.140625 -104.125 57.101562 -105.867188 58.09375 -107.609375 C 59.082031 -109.359375 59.984375 -111.164062 60.796875 -113.03125 C 59.984375 -111.632812 59.226562 -110.296875 58.53125 -109.015625 C 57.832031 -107.734375 57.128906 -106.507812 56.421875 -105.34375 C 55.140625 -102.894531 53.800781 -100.476562 52.40625 -98.09375 C 51.007812 -95.707031 49.554688 -93.347656 48.046875 -91.015625 L 44.203125 -84.90625 C 43.734375 -84.4375 43.207031 -83.820312 42.625 -83.0625 C 42.039062 -82.3125 41.578125 -81.644531 41.234375 -81.0625 C 41.816406 -82.34375 42.601562 -83.625 43.59375 -84.90625 C 44.582031 -86.1875 45.484375 -87.46875 46.296875 -88.75 L 51.015625 -96.4375 C 52.640625 -99.226562 54.265625 -102.078125 55.890625 -104.984375 C 57.523438 -107.898438 58.984375 -110.816406 60.265625 -113.734375 C 60.972656 -115.128906 61.847656 -116.988281 62.890625 -119.3125 C 63.941406 -121.644531 64.726562 -123.972656 65.25 -126.296875 C 65.769531 -128.628906 65.507812 -130.5 64.46875 -131.90625 C 63.414062 -133.300781 62.21875 -133.734375 60.875 -133.203125 C 59.539062 -132.679688 58.289062 -131.804688 57.125 -130.578125 C 55.957031 -129.359375 55.082031 -128.34375 54.5 -127.53125 Z M 37.03125 -37.5625 C 41.457031 -39.3125 45.617188 -41.816406 49.515625 -45.078125 C 53.421875 -48.335938 57.003906 -51.710938 60.265625 -55.203125 C 60.617188 -55.554688 61.378906 -56.429688 62.546875 -57.828125 C 63.710938 -59.222656 64.90625 -60.796875 66.125 -62.546875 C 67.34375 -64.296875 68.269531 -65.894531 68.90625 -67.34375 C 69.550781 -68.800781 69.523438 -69.765625 68.828125 -70.234375 C 68.128906 -70.816406 67.109375 -70.726562 65.765625 -69.96875 C 64.429688 -69.207031 63.066406 -68.1875 61.671875 -66.90625 C 60.273438 -65.625 58.992188 -64.375 57.828125 -63.15625 C 56.660156 -61.9375 55.90625 -61.09375 55.5625 -60.625 C 52.175781 -57.007812 48.96875 -53.28125 45.9375 -49.4375 C 42.914062 -45.59375 39.945312 -41.632812 37.03125 -37.5625 Z M 38.078125 -100.28125 C 35.867188 -95.039062 34.035156 -89.566406 32.578125 -83.859375 C 31.117188 -78.148438 29.8125 -72.5625 28.65625 -67.09375 C 28.65625 -66.96875 28.625 -66.90625 28.5625 -66.90625 C 28.507812 -66.90625 28.484375 -66.847656 28.484375 -66.734375 L 28.65625 -66.90625 L 28.296875 -65.515625 C 29.460938 -69.941406 30.710938 -74.28125 32.046875 -78.53125 C 33.390625 -82.78125 34.757812 -87.0625 36.15625 -91.375 C 37.4375 -95.09375 38.628906 -98.757812 39.734375 -102.375 C 40.847656 -105.988281 42.101562 -109.597656 43.5 -113.203125 C 43.726562 -113.785156 44.304688 -114.832031 45.234375 -116.34375 C 46.171875 -117.863281 46.875 -119.207031 47.34375 -120.375 C 46.875 -119.550781 46.316406 -118.675781 45.671875 -117.75 C 45.035156 -116.820312 44.660156 -116.179688 44.546875 -115.828125 C 43.378906 -113.265625 42.269531 -110.671875 41.21875 -108.046875 C 40.175781 -105.429688 39.128906 -102.84375 38.078125 -100.28125 Z M 25.5 -100.796875 C 25.5 -100.796875 25.5 -100.765625 25.5 -100.703125 C 25.5 -100.648438 25.441406 -100.625 25.328125 -100.625 Z M 25.328125 -100.453125 L 25.328125 -100.625 Z M 25.328125 -100.453125 "/></g></g></g><g fill="#ffffff" fill-opacity="1"><g transform="translate(168.201637, 176.689693)"><g><path d="M 101.859375 -41.75 C 102.085938 -40.125 101.585938 -38.84375 100.359375 -37.90625 C 99.140625 -36.976562 97.945312 -36.046875 96.78125 -35.109375 L 81.59375 -23.0625 C 78.90625 -20.84375 76.222656 -18.597656 73.546875 -16.328125 C 70.867188 -14.054688 68.191406 -11.757812 65.515625 -9.4375 C 64.460938 -8.5 63.207031 -7.503906 61.75 -6.453125 C 60.300781 -5.410156 59.109375 -4.25 58.171875 -2.96875 C 57.359375 -1.800781 56.71875 -0.113281 56.25 2.09375 C 55.789062 4.3125 55.269531 6.175781 54.6875 7.6875 C 51.425781 17.9375 48.046875 28.242188 44.546875 38.609375 C 41.054688 48.972656 36.515625 58.816406 30.921875 68.140625 C 29.171875 70.929688 27.394531 73.609375 25.59375 76.171875 C 23.789062 78.734375 21.082031 80.476562 17.46875 81.40625 C 13.507812 82.457031 9.550781 82.140625 5.59375 80.453125 C 1.632812 78.765625 -1.507812 76.289062 -3.84375 73.03125 C -6.175781 70 -7.109375 66.851562 -6.640625 63.59375 C -6.171875 60.332031 -5.003906 57.15625 -3.140625 54.0625 C -1.273438 50.976562 0.585938 48.210938 2.453125 45.765625 C 5.128906 42.160156 7.863281 38.582031 10.65625 35.03125 C 13.445312 31.476562 16.359375 28.070312 19.390625 24.8125 C 21.609375 22.476562 23.878906 20.234375 26.203125 18.078125 C 28.535156 15.921875 30.863281 13.738281 33.1875 11.53125 C 34.820312 9.894531 36.832031 8.113281 39.21875 6.1875 C 41.601562 4.269531 43.378906 2.265625 44.546875 0.171875 C 45.941406 -2.503906 47.019531 -5.472656 47.78125 -8.734375 C 48.539062 -11.992188 49.382812 -15.082031 50.3125 -18 C 51.007812 -20.4375 51.738281 -22.878906 52.5 -25.328125 C 53.257812 -27.773438 54.046875 -30.222656 54.859375 -32.671875 C 53.460938 -31.617188 52.148438 -30.21875 50.921875 -28.46875 C 49.703125 -26.726562 48.453125 -25.21875 47.171875 -23.9375 L 35.640625 -12.40625 C 33.773438 -10.539062 31.765625 -8.675781 29.609375 -6.8125 C 27.453125 -4.945312 25.09375 -3.492188 22.53125 -2.453125 C 22.1875 -2.328125 21.398438 -2.003906 20.171875 -1.484375 C 18.953125 -0.960938 17.816406 -0.492188 16.765625 -0.078125 C 15.722656 0.328125 15.144531 0.53125 15.03125 0.53125 L 15.375 0.171875 L 14.328125 0.53125 C 14.910156 0.53125 14.675781 0.757812 13.625 1.21875 C 12.570312 1.6875 11.875 1.921875 11.53125 1.921875 C 9.550781 2.273438 7.6875 1.984375 5.9375 1.046875 C 4.3125 0.117188 2.972656 -1.273438 1.921875 -3.140625 C 0.867188 -5.003906 0.226562 -6.8125 0 -8.5625 C 0 -9.03125 0.0546875 -10.253906 0.171875 -12.234375 C 0.285156 -14.210938 0.515625 -16.160156 0.859375 -18.078125 C 1.210938 -20.003906 1.679688 -20.910156 2.265625 -20.796875 C 2.503906 -20.796875 2.5625 -20.617188 2.4375 -20.265625 C 2.320312 -19.910156 2.328125 -19.675781 2.453125 -19.5625 C 2.566406 -20.144531 2.679688 -20.785156 2.796875 -21.484375 C 2.910156 -22.179688 3.023438 -22.820312 3.140625 -23.40625 L 2.796875 -23.0625 C 2.566406 -23.0625 2.710938 -23.960938 3.234375 -25.765625 C 3.753906 -27.578125 4.394531 -29.703125 5.15625 -32.140625 C 5.914062 -34.585938 6.644531 -36.800781 7.34375 -38.78125 C 8.039062 -40.757812 8.445312 -41.925781 8.5625 -42.28125 C 9.257812 -44.03125 9.925781 -45.832031 10.5625 -47.6875 C 11.207031 -49.550781 11.992188 -51.300781 12.921875 -52.9375 C 13.273438 -53.519531 13.65625 -53.957031 14.0625 -54.25 C 14.46875 -54.539062 14.789062 -54.914062 15.03125 -55.375 C 15.257812 -55.613281 15.488281 -55.960938 15.71875 -56.421875 C 15.957031 -56.890625 16.191406 -57.300781 16.421875 -57.65625 C 17.347656 -59.632812 18.890625 -61.144531 21.046875 -62.1875 C 23.203125 -63.238281 25.328125 -63.300781 27.421875 -62.375 C 28.359375 -62.019531 29.320312 -61.316406 30.3125 -60.265625 C 31.300781 -59.222656 31.679688 -58.117188 31.453125 -56.953125 C 31.328125 -56.484375 31.0625 -56.101562 30.65625 -55.8125 C 30.25 -55.519531 29.929688 -55.203125 29.703125 -54.859375 C 29.816406 -54.859375 29.898438 -54.882812 29.953125 -54.9375 C 30.015625 -55 30.101562 -55.03125 30.21875 -55.03125 C 30.457031 -55.03125 30.367188 -54.535156 29.953125 -53.546875 C 29.546875 -52.554688 29.109375 -51.59375 28.640625 -50.65625 C 28.179688 -49.726562 27.835938 -49.265625 27.609375 -49.265625 C 27.484375 -49.265625 27.476562 -49.523438 27.59375 -50.046875 C 27.71875 -50.578125 27.835938 -51.015625 27.953125 -51.359375 C 26.085938 -47.398438 24.25 -43.320312 22.4375 -39.125 C 20.632812 -34.9375 19.035156 -30.6875 17.640625 -26.375 C 17.992188 -27.195312 18.519531 -28.507812 19.21875 -30.3125 C 19.914062 -32.113281 20.703125 -34.003906 21.578125 -35.984375 C 22.453125 -37.960938 23.207031 -39.648438 23.84375 -41.046875 C 24.488281 -42.453125 24.867188 -43.15625 24.984375 -43.15625 C 25.097656 -43.15625 24.628906 -41.988281 23.578125 -39.65625 C 22.535156 -37.320312 21.285156 -34.4375 19.828125 -31 C 18.367188 -27.570312 17.085938 -24.109375 15.984375 -20.609375 C 14.878906 -17.117188 14.296875 -14.09375 14.234375 -11.53125 C 14.179688 -8.96875 14.96875 -7.394531 16.59375 -6.8125 C 17.644531 -6.46875 18.835938 -6.703125 20.171875 -7.515625 C 21.515625 -8.328125 22.851562 -9.316406 24.1875 -10.484375 C 25.53125 -11.648438 26.492188 -12.460938 27.078125 -12.921875 C 29.410156 -14.785156 31.941406 -16.738281 34.671875 -18.78125 C 37.410156 -20.820312 39.710938 -22.832031 41.578125 -24.8125 C 41.460938 -24.695312 41.285156 -24.578125 41.046875 -24.453125 C 40.816406 -24.335938 40.585938 -24.28125 40.359375 -24.28125 C 40.359375 -24.28125 40.796875 -24.800781 41.671875 -25.84375 C 42.546875 -26.894531 43.5625 -28.09375 44.71875 -29.4375 C 45.882812 -30.78125 46.960938 -32.0625 47.953125 -33.28125 C 48.941406 -34.5 49.613281 -35.285156 49.96875 -35.640625 C 51.476562 -37.265625 53.25 -39.035156 55.28125 -40.953125 C 57.320312 -42.878906 58.695312 -44.953125 59.40625 -47.171875 C 59.75 -48.453125 60.15625 -49.5 60.625 -50.3125 C 61.09375 -51.125 62.253906 -51.707031 64.109375 -52.0625 C 66.210938 -52.40625 68.515625 -52.082031 71.015625 -51.09375 C 73.515625 -50.101562 75 -48.445312 75.46875 -46.125 C 75.707031 -45.070312 75.648438 -44.140625 75.296875 -43.328125 C 74.941406 -42.515625 74.476562 -41.640625 73.90625 -40.703125 C 71.34375 -36.390625 68.863281 -31.929688 66.46875 -27.328125 C 64.082031 -22.734375 62.078125 -18.050781 60.453125 -13.28125 C 64.523438 -16.65625 68.566406 -20.03125 72.578125 -23.40625 C 76.597656 -26.789062 80.765625 -30.113281 85.078125 -33.375 C 86.585938 -34.65625 88.097656 -35.847656 89.609375 -36.953125 C 91.128906 -38.054688 92.648438 -39.191406 94.171875 -40.359375 C 94.742188 -40.941406 95.613281 -41.695312 96.78125 -42.625 C 97.945312 -43.5625 99.050781 -44.113281 100.09375 -44.28125 C 101.144531 -44.457031 101.734375 -43.613281 101.859375 -41.75 Z M 26.734375 48.921875 C 29.410156 42.972656 31.828125 36.972656 33.984375 30.921875 C 36.140625 24.867188 38.265625 18.8125 40.359375 12.75 C 36.742188 16.125 33.273438 19.617188 29.953125 23.234375 C 26.640625 26.847656 23.46875 30.632812 20.4375 34.59375 C 17.53125 38.320312 14.53125 42.25 11.4375 46.375 C 8.351562 50.507812 6.171875 54.96875 4.890625 59.75 C 4.546875 61.03125 4.429688 62.863281 4.546875 65.25 C 4.660156 67.632812 5.238281 69.671875 6.28125 71.359375 C 7.332031 73.054688 9.023438 73.492188 11.359375 72.671875 C 13.222656 72.085938 14.820312 70.75 16.15625 68.65625 C 17.5 66.5625 18.632812 64.757812 19.5625 63.25 C 22.007812 59.164062 24.050781 55.203125 25.6875 51.359375 C 25.6875 51.359375 25.710938 51.300781 25.765625 51.1875 C 25.828125 51.070312 25.859375 50.957031 25.859375 50.84375 C 25.859375 50.84375 25.859375 50.8125 25.859375 50.75 C 25.859375 50.6875 25.914062 50.65625 26.03125 50.65625 L 26.03125 50.484375 L 26.734375 49.09375 Z M 36.859375 46.46875 C 36.390625 47.28125 35.976562 48.210938 35.625 49.265625 C 35.28125 50.316406 34.9375 51.304688 34.59375 52.234375 L 36.15625 49.4375 C 37.09375 47.8125 37.851562 46.210938 38.4375 44.640625 C 39.019531 43.066406 39.539062 41.519531 40 40 C 39.425781 41.050781 38.847656 42.128906 38.265625 43.234375 C 37.679688 44.347656 37.210938 45.425781 36.859375 46.46875 Z M 42.796875 27.421875 C 43.035156 26.960938 43.125 26.46875 43.0625 25.9375 C 43.007812 25.414062 42.921875 24.921875 42.796875 24.453125 C 43.035156 25.390625 42.890625 26.46875 42.359375 27.6875 C 41.835938 28.914062 41.40625 29.9375 41.0625 30.75 C 40.707031 31.21875 40.441406 31.859375 40.265625 32.671875 C 40.085938 33.484375 39.882812 34.296875 39.65625 35.109375 Z M 37.21875 42.28125 C 37.445312 42.039062 37.675781 41.691406 37.90625 41.234375 Z M 37.21875 42.28125 "/></g></g></g></g></g></g><g clip-path="url(#40ff9e606d)"><g clip-path="url(#b7c610f40d)"><g clip-path="url(#0e2f478da0)"><path fill="#ffffff" d="M 306.105469 162.492188 L 309.386719 169.617188 L 246.113281 226.753906 Z M 306.105469 162.492188 " fill-opacity="1" fill-rule="nonzero"/></g></g></g></g></g></svg>